<svg width="584" height="349" viewBox="0 0 584 349" fill="none" xmlns="http://www.w3.org/2000/svg">
<path d="M94.5 187.583C89.432 187.583 84.642 186.61 80.1302 184.663C75.6184 182.716 71.6783 180.058 68.3099 176.69C64.9415 173.322 62.2839 169.382 60.337 164.87C58.3901 160.358 57.4167 155.568 57.4167 150.5C57.4167 145.37 58.3901 140.565 60.337 136.084C62.2839 131.603 64.9415 127.678 68.3099 124.31C71.6783 120.941 75.6184 118.284 80.1302 116.337C84.642 114.39 89.432 113.417 94.5 113.417C99.6299 113.417 104.435 114.39 108.916 116.337C113.397 118.284 117.322 120.941 120.69 124.31C124.059 127.678 126.716 131.603 128.663 136.084C130.61 140.565 131.583 145.37 131.583 150.5C131.583 155.568 130.61 160.358 128.663 164.87C126.716 169.382 124.059 173.322 120.69 176.69C117.322 180.058 113.397 182.716 108.916 184.663C104.435 186.61 99.6299 187.583 94.5 187.583ZM113.505 141.878L119.902 139.653L121.571 133.72C119.469 130.444 116.874 127.647 113.783 125.33C110.693 123.012 107.201 121.235 103.307 119.999L97.2813 123.985V130.475L113.505 141.878ZM75.5875 141.878L91.7188 130.475V123.985L85.7854 119.999C81.8917 121.235 78.3997 123.012 75.3094 125.33C72.2191 127.647 69.6233 130.444 67.5219 133.72L69.5615 139.653L75.5875 141.878ZM70.5813 171.545L76.1438 170.896L79.7594 164.87L74.0115 147.162L67.4292 144.937L62.9792 148.553C62.9792 153.003 63.4736 157.067 64.4625 160.744C65.4514 164.422 67.491 168.022 70.5813 171.545ZM94.5 182.021C96.1688 182.021 97.853 181.866 99.5526 181.557C101.252 181.248 103.029 180.846 104.883 180.352L107.943 173.677L104.976 168.578H84.1167L81.15 173.677L84.2094 180.352C85.8163 180.846 87.516 181.248 89.3084 181.557C91.1007 181.866 92.8313 182.021 94.5 182.021ZM84.6729 163.016H103.956L109.611 146.05L94.5 135.203L79.1104 146.05L84.6729 163.016ZM118.511 171.545C121.54 168.022 123.549 164.422 124.538 160.744C125.526 157.067 126.021 153.003 126.021 148.553L121.571 145.494L115.081 147.162L109.333 164.87L112.856 170.896L118.511 171.545Z" fill="white"/>
<circle cx="166.5" cy="131.5" r="13.5" fill="#FBAB4D"/>
<path d="M167.619 124.455V139H165.858V126.301H165.773L162.222 128.659V126.869L165.858 124.455H167.619Z" fill="white"/>
<path d="M167.631 159.5C167.435 158.902 167.178 158.367 166.858 157.893C166.545 157.414 166.169 157.005 165.731 156.668C165.299 156.331 164.808 156.073 164.257 155.896C163.707 155.718 163.103 155.629 162.446 155.629C161.369 155.629 160.389 155.907 159.507 156.464C158.626 157.02 157.924 157.84 157.403 158.923C156.883 160.006 156.622 161.335 156.622 162.909C156.622 164.483 156.886 165.812 157.412 166.895C157.939 167.978 158.652 168.798 159.552 169.354C160.451 169.911 161.464 170.189 162.588 170.189C163.63 170.189 164.547 169.967 165.34 169.523C166.139 169.073 166.761 168.44 167.205 167.623C167.654 166.801 167.879 165.833 167.879 164.72L168.554 164.862H163.085V162.909H170.01V164.862C170.01 166.36 169.69 167.662 169.051 168.768C168.418 169.875 167.542 170.733 166.423 171.343C165.311 171.947 164.032 172.249 162.588 172.249C160.978 172.249 159.564 171.87 158.344 171.112C157.131 170.355 156.184 169.277 155.504 167.881C154.829 166.484 154.491 164.827 154.491 162.909C154.491 161.471 154.684 160.178 155.069 159.029C155.459 157.875 156.01 156.893 156.72 156.082C157.43 155.271 158.27 154.65 159.241 154.218C160.212 153.786 161.28 153.57 162.446 153.57C163.405 153.57 164.299 153.715 165.127 154.005C165.962 154.289 166.704 154.694 167.355 155.221C168.012 155.742 168.56 156.366 168.998 157.094C169.436 157.816 169.738 158.618 169.903 159.5H167.631ZM179.036 172.284C177.805 172.284 176.725 171.991 175.796 171.405C174.873 170.819 174.151 170 173.63 168.946C173.115 167.893 172.858 166.661 172.858 165.253C172.858 163.832 173.115 162.592 173.63 161.533C174.151 160.474 174.873 159.651 175.796 159.065C176.725 158.479 177.805 158.186 179.036 158.186C180.268 158.186 181.345 158.479 182.268 159.065C183.197 159.651 183.919 160.474 184.434 161.533C184.955 162.592 185.215 163.832 185.215 165.253C185.215 166.661 184.955 167.893 184.434 168.946C183.919 170 183.197 170.819 182.268 171.405C181.345 171.991 180.268 172.284 179.036 172.284ZM179.036 170.402C179.972 170.402 180.741 170.162 181.345 169.683C181.948 169.203 182.395 168.573 182.685 167.792C182.975 167.011 183.12 166.164 183.12 165.253C183.12 164.341 182.975 163.492 182.685 162.705C182.395 161.918 181.948 161.281 181.345 160.796C180.741 160.311 179.972 160.068 179.036 160.068C178.101 160.068 177.332 160.311 176.728 160.796C176.125 161.281 175.678 161.918 175.388 162.705C175.098 163.492 174.953 164.341 174.953 165.253C174.953 166.164 175.098 167.011 175.388 167.792C175.678 168.573 176.125 169.203 176.728 169.683C177.332 170.162 178.101 170.402 179.036 170.402ZM190.509 153.818V172H188.414V153.818H190.509ZM204.005 161.418L202.123 161.95C202.005 161.637 201.83 161.332 201.6 161.036C201.375 160.734 201.067 160.485 200.676 160.29C200.286 160.095 199.785 159.997 199.176 159.997C198.341 159.997 197.646 160.19 197.09 160.574C196.539 160.953 196.264 161.435 196.264 162.021C196.264 162.542 196.453 162.953 196.832 163.255C197.211 163.557 197.803 163.809 198.608 164.01L200.632 164.507C201.851 164.803 202.76 165.256 203.357 165.865C203.955 166.469 204.254 167.247 204.254 168.2C204.254 168.982 204.029 169.68 203.579 170.295C203.135 170.911 202.514 171.396 201.715 171.751C200.916 172.107 199.987 172.284 198.927 172.284C197.536 172.284 196.385 171.982 195.474 171.379C194.562 170.775 193.985 169.893 193.743 168.733L195.731 168.236C195.921 168.97 196.279 169.52 196.805 169.887C197.338 170.254 198.034 170.438 198.892 170.438C199.868 170.438 200.644 170.23 201.218 169.816C201.798 169.396 202.088 168.893 202.088 168.307C202.088 167.833 201.922 167.437 201.591 167.117C201.259 166.792 200.75 166.549 200.064 166.389L197.791 165.857C196.542 165.561 195.625 165.102 195.039 164.48C194.459 163.853 194.169 163.069 194.169 162.128C194.169 161.358 194.385 160.678 194.817 160.086C195.255 159.494 195.85 159.029 196.601 158.692C197.359 158.355 198.217 158.186 199.176 158.186C200.525 158.186 201.585 158.482 202.354 159.074C203.129 159.666 203.68 160.447 204.005 161.418Z" fill="white"/>
<path d="M325.958 185.625V121.167H358.472L360.273 129.319H382.833V164.392H358.567L356.766 156.334H331.646V185.625H325.958ZM363.401 158.704H377.146V135.006H355.439L353.638 126.854H331.646V150.647H361.6L363.401 158.704Z" fill="white"/>
<circle cx="411.5" cy="133.5" r="13.5" fill="#FBAB4D"/>
<path d="M407.506 141V139.722L412.307 134.466C412.87 133.85 413.334 133.315 413.699 132.861C414.063 132.402 414.333 131.971 414.509 131.568C414.688 131.161 414.778 130.735 414.778 130.29C414.778 129.778 414.655 129.336 414.409 128.962C414.168 128.588 413.836 128.299 413.415 128.095C412.993 127.892 412.52 127.79 411.994 127.79C411.436 127.79 410.948 127.906 410.531 128.138C410.119 128.365 409.8 128.685 409.572 129.097C409.35 129.509 409.239 129.991 409.239 130.545H407.562C407.562 129.693 407.759 128.945 408.152 128.301C408.545 127.657 409.08 127.155 409.757 126.795C410.439 126.436 411.204 126.256 412.051 126.256C412.903 126.256 413.659 126.436 414.317 126.795C414.975 127.155 415.491 127.641 415.865 128.251C416.239 128.862 416.426 129.542 416.426 130.29C416.426 130.825 416.329 131.348 416.135 131.859C415.946 132.366 415.614 132.932 415.141 133.557C414.672 134.177 414.021 134.935 413.188 135.83L409.92 139.324V139.438H416.682V141H407.506Z" fill="white"/>
<path d="M400.202 174V155.818H411.175V157.771H402.403V163.915H410.607V165.868H402.403V172.047H411.317V174H400.202ZM424.518 163.418L422.636 163.95C422.518 163.637 422.343 163.332 422.112 163.036C421.887 162.734 421.58 162.485 421.189 162.29C420.798 162.095 420.298 161.997 419.689 161.997C418.854 161.997 418.159 162.19 417.602 162.574C417.052 162.953 416.777 163.435 416.777 164.021C416.777 164.542 416.966 164.953 417.345 165.255C417.724 165.557 418.315 165.809 419.12 166.01L421.145 166.507C422.364 166.803 423.272 167.256 423.87 167.865C424.468 168.469 424.767 169.247 424.767 170.2C424.767 170.982 424.542 171.68 424.092 172.295C423.648 172.911 423.027 173.396 422.228 173.751C421.429 174.107 420.499 174.284 419.44 174.284C418.049 174.284 416.898 173.982 415.987 173.379C415.075 172.775 414.498 171.893 414.255 170.733L416.244 170.236C416.433 170.97 416.791 171.52 417.318 171.887C417.851 172.254 418.546 172.438 419.404 172.438C420.381 172.438 421.156 172.23 421.73 171.816C422.31 171.396 422.6 170.893 422.6 170.307C422.6 169.833 422.435 169.437 422.103 169.117C421.772 168.792 421.263 168.549 420.576 168.389L418.304 167.857C417.055 167.561 416.137 167.102 415.551 166.48C414.971 165.853 414.681 165.069 414.681 164.128C414.681 163.358 414.897 162.678 415.33 162.086C415.768 161.494 416.362 161.029 417.114 160.692C417.872 160.355 418.73 160.186 419.689 160.186C421.038 160.186 422.097 160.482 422.867 161.074C423.642 161.666 424.193 162.447 424.518 163.418ZM433.46 174.284C432.182 174.284 431.081 173.982 430.158 173.379C429.234 172.775 428.524 171.943 428.027 170.884C427.53 169.824 427.281 168.614 427.281 167.253C427.281 165.868 427.536 164.646 428.045 163.586C428.56 162.521 429.276 161.689 430.193 161.092C431.117 160.488 432.194 160.186 433.425 160.186C434.384 160.186 435.248 160.364 436.017 160.719C436.787 161.074 437.417 161.571 437.908 162.21C438.399 162.849 438.704 163.595 438.823 164.447H436.727C436.568 163.826 436.212 163.276 435.662 162.796C435.118 162.311 434.384 162.068 433.46 162.068C432.644 162.068 431.927 162.281 431.312 162.707C430.702 163.128 430.226 163.722 429.883 164.492C429.545 165.255 429.377 166.152 429.377 167.182C429.377 168.235 429.542 169.153 429.874 169.934C430.211 170.715 430.685 171.322 431.294 171.754C431.91 172.186 432.632 172.402 433.46 172.402C434.005 172.402 434.499 172.307 434.943 172.118C435.387 171.929 435.763 171.656 436.07 171.301C436.378 170.946 436.597 170.52 436.727 170.023H438.823C438.704 170.828 438.411 171.553 437.944 172.198C437.482 172.837 436.869 173.346 436.106 173.725C435.348 174.098 434.466 174.284 433.46 174.284ZM445.898 174.32C445.034 174.32 444.25 174.157 443.546 173.831C442.841 173.5 442.282 173.023 441.868 172.402C441.453 171.775 441.246 171.017 441.246 170.129C441.246 169.348 441.4 168.715 441.708 168.229C442.016 167.738 442.427 167.353 442.942 167.075C443.457 166.797 444.025 166.59 444.646 166.454C445.274 166.312 445.904 166.199 446.537 166.116C447.366 166.01 448.038 165.93 448.553 165.877C449.073 165.818 449.452 165.72 449.689 165.584C449.932 165.448 450.053 165.211 450.053 164.874V164.803C450.053 163.927 449.813 163.246 449.334 162.761C448.86 162.275 448.141 162.033 447.177 162.033C446.176 162.033 445.392 162.252 444.824 162.69C444.256 163.128 443.856 163.595 443.625 164.092L441.637 163.382C441.992 162.554 442.465 161.908 443.057 161.447C443.655 160.979 444.306 160.654 445.01 160.47C445.721 160.281 446.419 160.186 447.106 160.186C447.544 160.186 448.047 160.239 448.615 160.346C449.189 160.446 449.742 160.657 450.275 160.976C450.814 161.296 451.26 161.778 451.616 162.423C451.971 163.068 452.148 163.933 452.148 165.016V174H450.053V172.153H449.946C449.804 172.449 449.568 172.766 449.236 173.103C448.905 173.441 448.464 173.728 447.913 173.964C447.363 174.201 446.691 174.32 445.898 174.32ZM446.218 172.438C447.046 172.438 447.745 172.275 448.313 171.949C448.887 171.624 449.319 171.203 449.609 170.689C449.905 170.174 450.053 169.632 450.053 169.064V167.146C449.964 167.253 449.769 167.35 449.467 167.439C449.171 167.522 448.828 167.596 448.437 167.661C448.053 167.72 447.677 167.774 447.31 167.821C446.949 167.862 446.656 167.898 446.431 167.928C445.886 167.999 445.377 168.114 444.904 168.274C444.436 168.428 444.057 168.661 443.767 168.975C443.483 169.283 443.341 169.703 443.341 170.236C443.341 170.964 443.611 171.514 444.149 171.887C444.694 172.254 445.383 172.438 446.218 172.438ZM458.067 165.797V174H455.972V160.364H457.996V162.494H458.174C458.494 161.802 458.979 161.246 459.63 160.825C460.281 160.399 461.121 160.186 462.151 160.186C463.075 160.186 463.882 160.375 464.575 160.754C465.267 161.127 465.806 161.695 466.191 162.459C466.575 163.216 466.768 164.175 466.768 165.335V174H464.673V165.477C464.673 164.406 464.394 163.571 463.838 162.974C463.282 162.37 462.518 162.068 461.548 162.068C460.879 162.068 460.281 162.213 459.754 162.503C459.233 162.793 458.822 163.216 458.52 163.773C458.218 164.329 458.067 165.004 458.067 165.797ZM476.527 160.364V162.139H469.46V160.364H476.527ZM471.52 157.097H473.615V170.094C473.615 170.686 473.701 171.129 473.872 171.425C474.05 171.715 474.275 171.911 474.547 172.011C474.825 172.106 475.118 172.153 475.426 172.153C475.657 172.153 475.846 172.142 475.994 172.118C476.142 172.088 476.26 172.065 476.349 172.047L476.775 173.929C476.633 173.982 476.435 174.036 476.18 174.089C475.926 174.148 475.603 174.178 475.213 174.178C474.621 174.178 474.041 174.05 473.473 173.796C472.91 173.541 472.443 173.154 472.07 172.633C471.703 172.112 471.52 171.455 471.52 170.662V157.097ZM485.249 174.284C483.935 174.284 482.802 173.994 481.849 173.414C480.902 172.828 480.171 172.011 479.656 170.964C479.147 169.91 478.893 168.685 478.893 167.288C478.893 165.892 479.147 164.661 479.656 163.595C480.171 162.524 480.887 161.689 481.805 161.092C482.728 160.488 483.805 160.186 485.036 160.186C485.746 160.186 486.448 160.304 487.14 160.541C487.833 160.778 488.463 161.163 489.031 161.695C489.599 162.222 490.052 162.92 490.389 163.79C490.727 164.661 490.896 165.732 490.896 167.004V167.892H480.384V166.081H488.765C488.765 165.312 488.611 164.625 488.303 164.021C488.001 163.418 487.569 162.941 487.007 162.592C486.451 162.243 485.794 162.068 485.036 162.068C484.202 162.068 483.48 162.275 482.87 162.69C482.266 163.098 481.802 163.631 481.476 164.288C481.151 164.945 480.988 165.649 480.988 166.401V167.608C480.988 168.638 481.165 169.511 481.521 170.227C481.882 170.937 482.382 171.479 483.021 171.852C483.66 172.219 484.403 172.402 485.249 172.402C485.8 172.402 486.297 172.325 486.741 172.171C487.19 172.011 487.578 171.775 487.904 171.461C488.229 171.141 488.481 170.745 488.658 170.271L490.682 170.839C490.469 171.526 490.111 172.13 489.608 172.651C489.105 173.165 488.484 173.568 487.744 173.858C487.004 174.142 486.172 174.284 485.249 174.284ZM494.083 174V160.364H496.178V174H494.083ZM495.148 158.091C494.74 158.091 494.387 157.952 494.092 157.674C493.802 157.395 493.657 157.061 493.657 156.67C493.657 156.28 493.802 155.945 494.092 155.667C494.387 155.389 494.74 155.25 495.148 155.25C495.556 155.25 495.906 155.389 496.196 155.667C496.492 155.945 496.639 156.28 496.639 156.67C496.639 157.061 496.492 157.395 496.196 157.674C495.906 157.952 495.556 158.091 495.148 158.091ZM505.555 174.284C504.324 174.284 503.244 173.991 502.315 173.405C501.391 172.819 500.669 172 500.148 170.946C499.634 169.893 499.376 168.661 499.376 167.253C499.376 165.832 499.634 164.592 500.148 163.533C500.669 162.474 501.391 161.651 502.315 161.065C503.244 160.479 504.324 160.186 505.555 160.186C506.786 160.186 507.863 160.479 508.787 161.065C509.716 161.651 510.438 162.474 510.953 163.533C511.474 164.592 511.734 165.832 511.734 167.253C511.734 168.661 511.474 169.893 510.953 170.946C510.438 172 509.716 172.819 508.787 173.405C507.863 173.991 506.786 174.284 505.555 174.284ZM505.555 172.402C506.49 172.402 507.26 172.162 507.863 171.683C508.467 171.203 508.914 170.573 509.204 169.792C509.494 169.011 509.639 168.164 509.639 167.253C509.639 166.341 509.494 165.492 509.204 164.705C508.914 163.918 508.467 163.281 507.863 162.796C507.26 162.311 506.49 162.068 505.555 162.068C504.62 162.068 503.85 162.311 503.247 162.796C502.643 163.281 502.196 163.918 501.906 164.705C501.616 165.492 501.471 166.341 501.471 167.253C501.471 168.164 501.616 169.011 501.906 169.792C502.196 170.573 502.643 171.203 503.247 171.683C503.85 172.162 504.62 172.402 505.555 172.402ZM524.591 163.418L522.709 163.95C522.591 163.637 522.416 163.332 522.185 163.036C521.961 162.734 521.653 162.485 521.262 162.29C520.872 162.095 520.371 161.997 519.762 161.997C518.927 161.997 518.232 162.19 517.676 162.574C517.125 162.953 516.85 163.435 516.85 164.021C516.85 164.542 517.039 164.953 517.418 165.255C517.797 165.557 518.389 165.809 519.194 166.01L521.218 166.507C522.437 166.803 523.345 167.256 523.943 167.865C524.541 168.469 524.84 169.247 524.84 170.2C524.84 170.982 524.615 171.68 524.165 172.295C523.721 172.911 523.1 173.396 522.301 173.751C521.502 174.107 520.573 174.284 519.513 174.284C518.122 174.284 516.971 173.982 516.06 173.379C515.148 172.775 514.571 171.893 514.329 170.733L516.317 170.236C516.507 170.97 516.865 171.52 517.391 171.887C517.924 172.254 518.62 172.438 519.478 172.438C520.454 172.438 521.23 172.23 521.804 171.816C522.384 171.396 522.674 170.893 522.674 170.307C522.674 169.833 522.508 169.437 522.177 169.117C521.845 168.792 521.336 168.549 520.65 168.389L518.377 167.857C517.128 167.561 516.211 167.102 515.625 166.48C515.045 165.853 514.755 165.069 514.755 164.128C514.755 163.358 514.971 162.678 515.403 162.086C515.841 161.494 516.436 161.029 517.187 160.692C517.945 160.355 518.803 160.186 519.762 160.186C521.111 160.186 522.171 160.482 522.94 161.074C523.715 161.666 524.266 162.447 524.591 163.418Z" fill="white"/>
<path d="M354.354 345.833V326.912L345.804 319.075L342.479 333.958L321.5 329.604L322.371 325.171L338.125 328.338L343.904 299.125L335.988 302.846V313.454H331.237V299.6L344.221 294.138C345.91 293.399 347.11 292.937 347.823 292.752C348.535 292.567 349.261 292.475 350 292.475C351.056 292.475 351.992 292.699 352.81 293.148C353.628 293.597 354.328 294.269 354.908 295.167L358.233 300.471C359.606 302.688 361.479 304.614 363.854 306.25C366.229 307.886 369 308.704 372.167 308.704V313.454C368.631 313.454 365.477 312.636 362.706 311C359.935 309.364 357.362 306.91 354.987 303.638L351.9 316.146L359.104 322.796V345.833H354.354ZM354.75 289.308C353.167 289.308 351.808 288.741 350.673 287.606C349.538 286.472 348.971 285.113 348.971 283.529C348.971 281.946 349.538 280.587 350.673 279.452C351.808 278.317 353.167 277.75 354.75 277.75C356.333 277.75 357.692 278.317 358.827 279.452C359.962 280.587 360.529 281.946 360.529 283.529C360.529 285.113 359.962 286.472 358.827 287.606C357.692 288.741 356.333 289.308 354.75 289.308Z" fill="white"/>
<circle cx="408.5" cy="293.5" r="13.5" fill="#FBAB4D"/>
<path d="M403.165 298.017V296.568L409.557 286.455H410.608V288.699H409.898L405.068 296.341V296.455H413.676V298.017H403.165ZM410.011 301V297.577V296.902V286.455H411.688V301H410.011Z" fill="white"/>
<path d="M404.162 315.818H406.364V328.815C406.364 329.975 406.151 330.961 405.724 331.772C405.298 332.583 404.698 333.198 403.922 333.618C403.147 334.038 402.232 334.249 401.179 334.249C400.185 334.249 399.3 334.068 398.525 333.707C397.749 333.34 397.14 332.819 396.696 332.145C396.252 331.47 396.03 330.668 396.03 329.739H398.196C398.196 330.254 398.323 330.703 398.578 331.088C398.838 331.467 399.193 331.763 399.643 331.976C400.093 332.189 400.605 332.295 401.179 332.295C401.812 332.295 402.351 332.162 402.795 331.896C403.239 331.63 403.576 331.239 403.807 330.724C404.044 330.203 404.162 329.567 404.162 328.815V315.818ZM416.032 334.284C414.801 334.284 413.72 333.991 412.791 333.405C411.868 332.819 411.146 332 410.625 330.946C410.11 329.893 409.853 328.661 409.853 327.253C409.853 325.832 410.11 324.592 410.625 323.533C411.146 322.474 411.868 321.651 412.791 321.065C413.72 320.479 414.801 320.186 416.032 320.186C417.263 320.186 418.34 320.479 419.263 321.065C420.192 321.651 420.914 322.474 421.429 323.533C421.95 324.592 422.211 325.832 422.211 327.253C422.211 328.661 421.95 329.893 421.429 330.946C420.914 332 420.192 332.819 419.263 333.405C418.34 333.991 417.263 334.284 416.032 334.284ZM416.032 332.402C416.967 332.402 417.736 332.162 418.34 331.683C418.944 331.203 419.39 330.573 419.68 329.792C419.97 329.011 420.115 328.164 420.115 327.253C420.115 326.341 419.97 325.492 419.68 324.705C419.39 323.918 418.944 323.281 418.34 322.796C417.736 322.311 416.967 322.068 416.032 322.068C415.096 322.068 414.327 322.311 413.723 322.796C413.12 323.281 412.673 323.918 412.383 324.705C412.093 325.492 411.948 326.341 411.948 327.253C411.948 328.164 412.093 329.011 412.383 329.792C412.673 330.573 413.12 331.203 413.723 331.683C414.327 332.162 415.096 332.402 416.032 332.402ZM430.913 339.398C429.901 339.398 429.031 339.268 428.303 339.007C427.575 338.753 426.968 338.415 426.483 337.995C426.004 337.581 425.622 337.137 425.338 336.663L427.007 335.491C427.196 335.74 427.436 336.024 427.726 336.344C428.016 336.669 428.412 336.95 428.916 337.187C429.425 337.43 430.09 337.551 430.913 337.551C432.014 337.551 432.922 337.285 433.639 336.752C434.355 336.219 434.713 335.385 434.713 334.249V331.479H434.535C434.381 331.727 434.162 332.035 433.878 332.402C433.6 332.763 433.198 333.086 432.671 333.37C432.15 333.648 431.446 333.787 430.558 333.787C429.457 333.787 428.469 333.527 427.593 333.006C426.723 332.485 426.033 331.727 425.524 330.733C425.021 329.739 424.77 328.531 424.77 327.111C424.77 325.714 425.015 324.498 425.506 323.462C425.998 322.42 426.681 321.615 427.557 321.047C428.433 320.473 429.445 320.186 430.593 320.186C431.481 320.186 432.186 320.334 432.706 320.63C433.233 320.92 433.636 321.251 433.914 321.624C434.198 321.991 434.417 322.293 434.571 322.53H434.784V320.364H436.808V334.391C436.808 335.562 436.542 336.515 436.009 337.249C435.482 337.989 434.772 338.531 433.878 338.874C432.991 339.223 432.002 339.398 430.913 339.398ZM430.842 331.905C431.682 331.905 432.393 331.712 432.973 331.328C433.553 330.943 433.994 330.39 434.296 329.668C434.597 328.946 434.748 328.081 434.748 327.075C434.748 326.093 434.6 325.226 434.304 324.474C434.008 323.722 433.571 323.134 432.991 322.707C432.41 322.281 431.694 322.068 430.842 322.068C429.954 322.068 429.214 322.293 428.623 322.743C428.037 323.193 427.596 323.796 427.3 324.554C427.01 325.312 426.865 326.152 426.865 327.075C426.865 328.022 427.013 328.86 427.309 329.588C427.611 330.31 428.054 330.878 428.64 331.292C429.232 331.701 429.966 331.905 430.842 331.905ZM444.656 334.32C443.792 334.32 443.008 334.157 442.303 333.831C441.599 333.5 441.04 333.023 440.625 332.402C440.211 331.775 440.004 331.017 440.004 330.129C440.004 329.348 440.158 328.715 440.466 328.229C440.773 327.738 441.185 327.353 441.7 327.075C442.215 326.797 442.783 326.59 443.404 326.454C444.032 326.312 444.662 326.199 445.295 326.116C446.124 326.01 446.796 325.93 447.31 325.877C447.831 325.818 448.21 325.72 448.447 325.584C448.689 325.448 448.811 325.211 448.811 324.874V324.803C448.811 323.927 448.571 323.246 448.092 322.761C447.618 322.275 446.899 322.033 445.934 322.033C444.934 322.033 444.15 322.252 443.582 322.69C443.014 323.128 442.614 323.595 442.383 324.092L440.395 323.382C440.75 322.554 441.223 321.908 441.815 321.447C442.413 320.979 443.064 320.654 443.768 320.47C444.478 320.281 445.177 320.186 445.863 320.186C446.301 320.186 446.804 320.239 447.373 320.346C447.947 320.446 448.5 320.657 449.033 320.976C449.571 321.296 450.018 321.778 450.373 322.423C450.728 323.068 450.906 323.933 450.906 325.016V334H448.811V332.153H448.704C448.562 332.449 448.325 332.766 447.994 333.103C447.663 333.441 447.222 333.728 446.671 333.964C446.121 334.201 445.449 334.32 444.656 334.32ZM444.976 332.438C445.804 332.438 446.503 332.275 447.071 331.949C447.645 331.624 448.077 331.203 448.367 330.689C448.663 330.174 448.811 329.632 448.811 329.064V327.146C448.722 327.253 448.527 327.35 448.225 327.439C447.929 327.522 447.586 327.596 447.195 327.661C446.81 327.72 446.435 327.774 446.068 327.821C445.707 327.862 445.414 327.898 445.189 327.928C444.644 327.999 444.135 328.114 443.662 328.274C443.194 328.428 442.815 328.661 442.525 328.975C442.241 329.283 442.099 329.703 442.099 330.236C442.099 330.964 442.368 331.514 442.907 331.887C443.452 332.254 444.141 332.438 444.976 332.438ZM459.879 334.284C458.743 334.284 457.74 333.997 456.87 333.423C456 332.843 455.319 332.026 454.828 330.973C454.337 329.913 454.091 328.661 454.091 327.217C454.091 325.785 454.337 324.542 454.828 323.489C455.319 322.435 456.003 321.621 456.879 321.047C457.754 320.473 458.767 320.186 459.915 320.186C460.803 320.186 461.504 320.334 462.019 320.63C462.54 320.92 462.936 321.251 463.208 321.624C463.487 321.991 463.703 322.293 463.857 322.53H464.034V315.818H466.129V334H464.105V331.905H463.857C463.703 332.153 463.484 332.467 463.2 332.846C462.915 333.219 462.51 333.553 461.983 333.849C461.457 334.139 460.755 334.284 459.879 334.284ZM460.163 332.402C461.004 332.402 461.714 332.183 462.294 331.745C462.874 331.301 463.315 330.689 463.617 329.907C463.919 329.12 464.07 328.212 464.07 327.182C464.07 326.164 463.922 325.273 463.626 324.51C463.33 323.74 462.892 323.142 462.312 322.716C461.732 322.284 461.016 322.068 460.163 322.068C459.276 322.068 458.536 322.296 457.944 322.752C457.358 323.202 456.917 323.814 456.621 324.589C456.331 325.359 456.186 326.223 456.186 327.182C456.186 328.152 456.334 329.034 456.63 329.827C456.932 330.615 457.376 331.242 457.962 331.71C458.554 332.171 459.287 332.402 460.163 332.402ZM475.797 334.284C474.566 334.284 473.486 333.991 472.557 333.405C471.634 332.819 470.911 332 470.391 330.946C469.876 329.893 469.618 328.661 469.618 327.253C469.618 325.832 469.876 324.592 470.391 323.533C470.911 322.474 471.634 321.651 472.557 321.065C473.486 320.479 474.566 320.186 475.797 320.186C477.028 320.186 478.105 320.479 479.029 321.065C479.958 321.651 480.68 322.474 481.195 323.533C481.716 324.592 481.976 325.832 481.976 327.253C481.976 328.661 481.716 329.893 481.195 330.946C480.68 332 479.958 332.819 479.029 333.405C478.105 333.991 477.028 334.284 475.797 334.284ZM475.797 332.402C476.732 332.402 477.502 332.162 478.105 331.683C478.709 331.203 479.156 330.573 479.446 329.792C479.736 329.011 479.881 328.164 479.881 327.253C479.881 326.341 479.736 325.492 479.446 324.705C479.156 323.918 478.709 323.281 478.105 322.796C477.502 322.311 476.732 322.068 475.797 322.068C474.862 322.068 474.093 322.311 473.489 322.796C472.885 323.281 472.438 323.918 472.148 324.705C471.858 325.492 471.713 326.341 471.713 327.253C471.713 328.164 471.858 329.011 472.148 329.792C472.438 330.573 472.885 331.203 473.489 331.683C474.093 332.162 474.862 332.402 475.797 332.402ZM485.174 334V320.364H487.199V322.423H487.341C487.589 321.749 488.039 321.201 488.69 320.781C489.341 320.361 490.075 320.151 490.892 320.151C491.046 320.151 491.238 320.154 491.469 320.159C491.7 320.165 491.874 320.174 491.993 320.186V322.317C491.922 322.299 491.759 322.272 491.504 322.237C491.256 322.195 490.992 322.175 490.714 322.175C490.051 322.175 489.459 322.314 488.939 322.592C488.424 322.864 488.015 323.243 487.714 323.728C487.418 324.208 487.27 324.755 487.27 325.371V334H485.174ZM499.778 334.284C498.465 334.284 497.331 333.994 496.378 333.414C495.431 332.828 494.7 332.011 494.185 330.964C493.676 329.91 493.422 328.685 493.422 327.288C493.422 325.892 493.676 324.661 494.185 323.595C494.7 322.524 495.417 321.689 496.334 321.092C497.257 320.488 498.334 320.186 499.565 320.186C500.276 320.186 500.977 320.304 501.669 320.541C502.362 320.778 502.992 321.163 503.56 321.695C504.129 322.222 504.581 322.92 504.919 323.79C505.256 324.661 505.425 325.732 505.425 327.004V327.892H494.913V326.081H503.294C503.294 325.312 503.14 324.625 502.832 324.021C502.531 323.418 502.099 322.941 501.536 322.592C500.98 322.243 500.323 322.068 499.565 322.068C498.731 322.068 498.009 322.275 497.399 322.69C496.796 323.098 496.331 323.631 496.005 324.288C495.68 324.945 495.517 325.649 495.517 326.401V327.608C495.517 328.638 495.695 329.511 496.05 330.227C496.411 330.937 496.911 331.479 497.55 331.852C498.189 332.219 498.932 332.402 499.778 332.402C500.329 332.402 500.826 332.325 501.27 332.171C501.72 332.011 502.107 331.775 502.433 331.461C502.758 331.141 503.01 330.745 503.188 330.271L505.212 330.839C504.999 331.526 504.641 332.13 504.138 332.651C503.634 333.165 503.013 333.568 502.273 333.858C501.533 334.142 500.702 334.284 499.778 334.284ZM518.271 323.418L516.389 323.95C516.271 323.637 516.096 323.332 515.865 323.036C515.64 322.734 515.332 322.485 514.942 322.29C514.551 322.095 514.051 321.997 513.441 321.997C512.607 321.997 511.912 322.19 511.355 322.574C510.805 322.953 510.53 323.435 510.53 324.021C510.53 324.542 510.719 324.953 511.098 325.255C511.477 325.557 512.068 325.809 512.873 326.01L514.897 326.507C516.117 326.803 517.025 327.256 517.623 327.865C518.221 328.469 518.52 329.247 518.52 330.2C518.52 330.982 518.295 331.68 517.845 332.295C517.401 332.911 516.78 333.396 515.981 333.751C515.182 334.107 514.252 334.284 513.193 334.284C511.802 334.284 510.651 333.982 509.739 333.379C508.828 332.775 508.251 331.893 508.008 330.733L509.997 330.236C510.186 330.97 510.544 331.52 511.071 331.887C511.604 332.254 512.299 332.438 513.157 332.438C514.134 332.438 514.909 332.23 515.483 331.816C516.063 331.396 516.353 330.893 516.353 330.307C516.353 329.833 516.188 329.437 515.856 329.117C515.525 328.792 515.016 328.549 514.329 328.389L512.057 327.857C510.808 327.561 509.89 327.102 509.304 326.48C508.724 325.853 508.434 325.069 508.434 324.128C508.434 323.358 508.65 322.678 509.082 322.086C509.52 321.494 510.115 321.029 510.867 320.692C511.624 320.355 512.483 320.186 513.441 320.186C514.791 320.186 515.85 320.482 516.62 321.074C517.395 321.666 517.946 322.447 518.271 323.418Z" fill="white"/>
<rect x="67" y="279" width="52" height="70" fill="white"/>
<circle cx="162.5" cy="292.5" r="13.5" fill="#FBAB4D"/>
<path d="M162.42 300.199C161.483 300.199 160.647 300.038 159.913 299.716C159.184 299.394 158.604 298.946 158.173 298.374C157.747 297.796 157.515 297.126 157.477 296.364H159.267C159.305 296.832 159.466 297.237 159.75 297.578C160.034 297.914 160.406 298.175 160.865 298.359C161.324 298.544 161.833 298.636 162.392 298.636C163.017 298.636 163.571 298.527 164.054 298.31C164.537 298.092 164.916 297.789 165.19 297.401C165.465 297.012 165.602 296.562 165.602 296.051C165.602 295.516 165.47 295.045 165.205 294.638C164.939 294.226 164.551 293.904 164.04 293.672C163.528 293.44 162.903 293.324 162.165 293.324H161V291.761H162.165C162.742 291.761 163.249 291.657 163.685 291.449C164.125 291.241 164.468 290.947 164.714 290.568C164.965 290.189 165.091 289.744 165.091 289.233C165.091 288.741 164.982 288.312 164.764 287.947C164.546 287.583 164.239 287.299 163.841 287.095C163.448 286.892 162.984 286.79 162.449 286.79C161.947 286.79 161.473 286.882 161.028 287.067C160.588 287.247 160.228 287.509 159.949 287.855C159.67 288.196 159.518 288.608 159.494 289.091H157.79C157.818 288.329 158.048 287.661 158.479 287.088C158.91 286.51 159.473 286.061 160.169 285.739C160.87 285.417 161.639 285.256 162.477 285.256C163.377 285.256 164.149 285.438 164.793 285.803C165.437 286.162 165.931 286.638 166.277 287.23C166.623 287.822 166.795 288.461 166.795 289.148C166.795 289.967 166.58 290.665 166.149 291.243C165.723 291.821 165.143 292.221 164.409 292.443V292.557C165.328 292.708 166.045 293.099 166.561 293.729C167.077 294.354 167.335 295.128 167.335 296.051C167.335 296.842 167.12 297.552 166.689 298.182C166.263 298.807 165.68 299.299 164.942 299.659C164.203 300.019 163.363 300.199 162.42 300.199Z" fill="white"/>
<path d="M165.832 320.5H163.631C163.5 319.867 163.273 319.31 162.947 318.831C162.627 318.352 162.237 317.949 161.775 317.624C161.319 317.292 160.813 317.044 160.257 316.878C159.701 316.712 159.121 316.629 158.517 316.629C157.416 316.629 156.419 316.907 155.525 317.464C154.637 318.02 153.93 318.84 153.403 319.923C152.883 321.006 152.622 322.335 152.622 323.909C152.622 325.483 152.883 326.812 153.403 327.895C153.93 328.978 154.637 329.798 155.525 330.354C156.419 330.911 157.416 331.189 158.517 331.189C159.121 331.189 159.701 331.106 160.257 330.94C160.813 330.775 161.319 330.529 161.775 330.203C162.237 329.872 162.627 329.467 162.947 328.987C163.273 328.502 163.5 327.946 163.631 327.318H165.832C165.667 328.247 165.365 329.079 164.927 329.813C164.489 330.547 163.944 331.171 163.293 331.686C162.642 332.195 161.911 332.583 161.1 332.849C160.296 333.115 159.434 333.249 158.517 333.249C156.966 333.249 155.587 332.87 154.38 332.112C153.173 331.355 152.223 330.277 151.53 328.881C150.838 327.484 150.491 325.827 150.491 323.909C150.491 321.991 150.838 320.334 151.53 318.938C152.223 317.541 153.173 316.464 154.38 315.706C155.587 314.948 156.966 314.57 158.517 314.57C159.434 314.57 160.296 314.703 161.1 314.969C161.911 315.235 162.642 315.626 163.293 316.141C163.944 316.65 164.489 317.271 164.927 318.005C165.365 318.733 165.667 319.565 165.832 320.5ZM173.119 333.32C172.255 333.32 171.471 333.157 170.766 332.831C170.062 332.5 169.503 332.023 169.088 331.402C168.674 330.775 168.467 330.017 168.467 329.129C168.467 328.348 168.621 327.715 168.929 327.229C169.236 326.738 169.648 326.353 170.163 326.075C170.677 325.797 171.246 325.59 171.867 325.454C172.494 325.312 173.125 325.199 173.758 325.116C174.587 325.01 175.258 324.93 175.773 324.877C176.294 324.818 176.673 324.72 176.91 324.584C177.152 324.448 177.274 324.211 177.274 323.874V323.803C177.274 322.927 177.034 322.246 176.555 321.761C176.081 321.275 175.362 321.033 174.397 321.033C173.397 321.033 172.613 321.252 172.045 321.69C171.476 322.128 171.077 322.595 170.846 323.092L168.858 322.382C169.213 321.554 169.686 320.908 170.278 320.447C170.876 319.979 171.527 319.654 172.231 319.47C172.941 319.281 173.64 319.186 174.326 319.186C174.764 319.186 175.267 319.239 175.835 319.346C176.41 319.446 176.963 319.657 177.496 319.976C178.034 320.296 178.481 320.778 178.836 321.423C179.191 322.068 179.369 322.933 179.369 324.016V333H177.274V331.153H177.167C177.025 331.449 176.788 331.766 176.457 332.103C176.126 332.441 175.685 332.728 175.134 332.964C174.584 333.201 173.912 333.32 173.119 333.32ZM173.438 331.438C174.267 331.438 174.965 331.275 175.534 330.949C176.108 330.624 176.54 330.203 176.83 329.689C177.126 329.174 177.274 328.632 177.274 328.064V326.146C177.185 326.253 176.99 326.35 176.688 326.439C176.392 326.522 176.049 326.596 175.658 326.661C175.273 326.72 174.897 326.774 174.53 326.821C174.169 326.862 173.876 326.898 173.652 326.928C173.107 326.999 172.598 327.114 172.125 327.274C171.657 327.428 171.278 327.661 170.988 327.975C170.704 328.283 170.562 328.703 170.562 329.236C170.562 329.964 170.831 330.514 171.37 330.887C171.914 331.254 172.604 331.438 173.438 331.438ZM183.193 333V319.364H185.217V321.423H185.359C185.608 320.749 186.058 320.201 186.709 319.781C187.36 319.361 188.094 319.151 188.91 319.151C189.064 319.151 189.257 319.154 189.487 319.159C189.718 319.165 189.893 319.174 190.011 319.186V321.317C189.94 321.299 189.777 321.272 189.523 321.237C189.274 321.195 189.011 321.175 188.733 321.175C188.07 321.175 187.478 321.314 186.957 321.592C186.442 321.864 186.034 322.243 185.732 322.728C185.436 323.208 185.288 323.755 185.288 324.371V333H183.193ZM199.28 319.364V321.139H192.213V319.364H199.28ZM194.273 316.097H196.368V329.094C196.368 329.686 196.454 330.129 196.625 330.425C196.803 330.715 197.028 330.911 197.3 331.011C197.578 331.106 197.871 331.153 198.179 331.153C198.41 331.153 198.599 331.142 198.747 331.118C198.895 331.088 199.013 331.065 199.102 331.047L199.528 332.929C199.386 332.982 199.188 333.036 198.933 333.089C198.679 333.148 198.356 333.178 197.966 333.178C197.374 333.178 196.794 333.05 196.226 332.796C195.663 332.541 195.196 332.154 194.823 331.633C194.456 331.112 194.273 330.455 194.273 329.662V316.097ZM206.444 333.32C205.58 333.32 204.796 333.157 204.091 332.831C203.387 332.5 202.828 332.023 202.414 331.402C201.999 330.775 201.792 330.017 201.792 329.129C201.792 328.348 201.946 327.715 202.254 327.229C202.561 326.738 202.973 326.353 203.488 326.075C204.003 325.797 204.571 325.59 205.192 325.454C205.82 325.312 206.45 325.199 207.083 325.116C207.912 325.01 208.584 324.93 209.099 324.877C209.619 324.818 209.998 324.72 210.235 324.584C210.478 324.448 210.599 324.211 210.599 323.874V323.803C210.599 322.927 210.359 322.246 209.88 321.761C209.406 321.275 208.687 321.033 207.722 321.033C206.722 321.033 205.938 321.252 205.37 321.69C204.802 322.128 204.402 322.595 204.171 323.092L202.183 322.382C202.538 321.554 203.011 320.908 203.603 320.447C204.201 319.979 204.852 319.654 205.556 319.47C206.267 319.281 206.965 319.186 207.651 319.186C208.089 319.186 208.593 319.239 209.161 319.346C209.735 319.446 210.288 319.657 210.821 319.976C211.359 320.296 211.806 320.778 212.161 321.423C212.517 322.068 212.694 322.933 212.694 324.016V333H210.599V331.153H210.492C210.35 331.449 210.114 331.766 209.782 332.103C209.451 332.441 209.01 332.728 208.459 332.964C207.909 333.201 207.237 333.32 206.444 333.32ZM206.764 331.438C207.592 331.438 208.291 331.275 208.859 330.949C209.433 330.624 209.865 330.203 210.155 329.689C210.451 329.174 210.599 328.632 210.599 328.064V326.146C210.51 326.253 210.315 326.35 210.013 326.439C209.717 326.522 209.374 326.596 208.983 326.661C208.598 326.72 208.223 326.774 207.856 326.821C207.495 326.862 207.202 326.898 206.977 326.928C206.432 326.999 205.923 327.114 205.45 327.274C204.982 327.428 204.603 327.661 204.313 327.975C204.029 328.283 203.887 328.703 203.887 329.236C203.887 329.964 204.157 330.514 204.695 330.887C205.24 331.254 205.929 331.438 206.764 331.438ZM205.059 317.73L203.426 317.659C203.426 316.754 203.683 316.014 204.198 315.44C204.719 314.86 205.361 314.57 206.124 314.57C206.462 314.57 206.761 314.629 207.021 314.747C207.282 314.86 207.53 314.99 207.767 315.138C208.004 315.286 208.246 315.419 208.495 315.537C208.749 315.65 209.036 315.706 209.356 315.706C209.693 315.706 209.977 315.576 210.208 315.315C210.445 315.049 210.563 314.729 210.563 314.357L212.161 314.499C212.161 315.422 211.901 316.156 211.38 316.7C210.865 317.245 210.226 317.517 209.463 317.517C209.054 317.517 208.717 317.461 208.45 317.348C208.184 317.23 207.947 317.097 207.74 316.949C207.533 316.801 207.314 316.671 207.083 316.558C206.852 316.44 206.568 316.381 206.231 316.381C205.894 316.381 205.613 316.514 205.388 316.78C205.169 317.041 205.059 317.357 205.059 317.73ZM222.058 333.284C220.827 333.284 219.747 332.991 218.818 332.405C217.894 331.819 217.172 331 216.651 329.946C216.136 328.893 215.879 327.661 215.879 326.253C215.879 324.832 216.136 323.592 216.651 322.533C217.172 321.474 217.894 320.651 218.818 320.065C219.747 319.479 220.827 319.186 222.058 319.186C223.289 319.186 224.366 319.479 225.29 320.065C226.219 320.651 226.941 321.474 227.456 322.533C227.977 323.592 228.237 324.832 228.237 326.253C228.237 327.661 227.977 328.893 227.456 329.946C226.941 331 226.219 331.819 225.29 332.405C224.366 332.991 223.289 333.284 222.058 333.284ZM222.058 331.402C222.993 331.402 223.763 331.162 224.366 330.683C224.97 330.203 225.417 329.573 225.707 328.792C225.997 328.011 226.142 327.164 226.142 326.253C226.142 325.341 225.997 324.492 225.707 323.705C225.417 322.918 224.97 322.281 224.366 321.796C223.763 321.311 222.993 321.068 222.058 321.068C221.123 321.068 220.353 321.311 219.75 321.796C219.146 322.281 218.699 322.918 218.409 323.705C218.119 324.492 217.974 325.341 217.974 326.253C217.974 327.164 218.119 328.011 218.409 328.792C218.699 329.573 219.146 330.203 219.75 330.683C220.353 331.162 221.123 331.402 222.058 331.402Z" fill="white"/>
<path d="M3.16051 49V12.6364H17.5071C20.2652 12.6364 22.6148 13.1631 24.5561 14.2166C26.4974 15.2583 27.977 16.7083 28.995 18.5668C30.0249 20.4134 30.5398 22.544 30.5398 24.9588C30.5398 27.3736 30.0189 29.5043 28.9773 31.3509C27.9356 33.1974 26.4264 34.6357 24.4496 35.6655C22.4846 36.6953 20.1054 37.2102 17.3118 37.2102H8.16761V31.049H16.0689C17.5485 31.049 18.7678 30.7945 19.7266 30.2855C20.6972 29.7647 21.4193 29.0485 21.8928 28.1371C22.3781 27.2138 22.6207 26.1544 22.6207 24.9588C22.6207 23.7514 22.3781 22.6979 21.8928 21.7983C21.4193 20.8868 20.6972 20.1825 19.7266 19.6854C18.7559 19.1764 17.5249 18.9219 16.0334 18.9219H10.8487V49H3.16051ZM35.5336 49V12.6364H49.8801C52.6264 12.6364 54.9701 13.1276 56.9114 14.1101C58.8645 15.0807 60.3501 16.4598 61.3681 18.2472C62.3979 20.0227 62.9128 22.112 62.9128 24.5149C62.9128 26.9297 62.392 29.0071 61.3503 30.7472C60.3087 32.4754 58.7994 33.8011 56.8226 34.7244C54.8577 35.6477 52.4784 36.1094 49.6848 36.1094H40.079V29.9304H48.4419C49.9097 29.9304 51.129 29.7292 52.0996 29.3267C53.0703 28.9242 53.7923 28.3205 54.2658 27.5156C54.7511 26.7107 54.9938 25.7105 54.9938 24.5149C54.9938 23.3075 54.7511 22.2895 54.2658 21.4609C53.7923 20.6323 53.0643 20.005 52.0819 19.5788C51.1112 19.1409 49.8861 18.9219 48.4064 18.9219H43.2218V49H35.5336ZM55.1713 32.4517L64.209 49H55.7218L46.8794 32.4517H55.1713ZM76.0343 12.6364V49H68.3461V12.6364H76.0343ZM112.775 12.6364V49H106.135L90.3143 26.1129H90.0479V49H82.3597V12.6364H89.1069L104.803 35.5057H105.123V12.6364H112.775ZM151.212 25.3672H143.435C143.293 24.361 143.003 23.4673 142.565 22.6861C142.127 21.893 141.565 21.2183 140.878 20.6619C140.191 20.1056 139.398 19.6794 138.499 19.3835C137.611 19.0876 136.646 18.9396 135.605 18.9396C133.722 18.9396 132.083 19.4072 130.686 20.3423C129.289 21.2656 128.206 22.6151 127.437 24.3906C126.668 26.1544 126.283 28.2969 126.283 30.8182C126.283 33.4105 126.668 35.5885 127.437 37.3523C128.218 39.116 129.307 40.4477 130.704 41.3473C132.101 42.2469 133.717 42.6967 135.551 42.6967C136.581 42.6967 137.534 42.5606 138.41 42.2884C139.298 42.0161 140.085 41.6196 140.771 41.0987C141.458 40.5661 142.026 39.9209 142.476 39.1634C142.938 38.4058 143.257 37.5417 143.435 36.571L151.212 36.6065C151.011 38.2756 150.508 39.8854 149.703 41.4361C148.91 42.9749 147.838 44.3539 146.489 45.5732C145.151 46.7805 143.553 47.7393 141.695 48.4496C139.848 49.148 137.759 49.4972 135.427 49.4972C132.184 49.4972 129.284 48.7633 126.727 47.2955C124.182 45.8277 122.169 43.7029 120.69 40.9212C119.222 38.1394 118.488 34.7718 118.488 30.8182C118.488 26.8527 119.234 23.4792 120.725 20.6974C122.217 17.9157 124.241 15.7969 126.798 14.3409C129.355 12.8731 132.231 12.1392 135.427 12.1392C137.534 12.1392 139.487 12.4351 141.286 13.027C143.097 13.6188 144.701 14.483 146.098 15.6193C147.495 16.7438 148.631 18.1229 149.507 19.7564C150.395 21.3899 150.963 23.2602 151.212 25.3672ZM164.413 12.6364V49H156.725V12.6364H164.413ZM170.739 49V12.6364H185.085C187.843 12.6364 190.193 13.1631 192.134 14.2166C194.076 15.2583 195.555 16.7083 196.573 18.5668C197.603 20.4134 198.118 22.544 198.118 24.9588C198.118 27.3736 197.597 29.5043 196.555 31.3509C195.514 33.1974 194.004 34.6357 192.028 35.6655C190.063 36.6953 187.683 37.2102 184.89 37.2102H175.746V31.049H183.647C185.127 31.049 186.346 30.7945 187.305 30.2855C188.275 29.7647 188.997 29.0485 189.471 28.1371C189.956 27.2138 190.199 26.1544 190.199 24.9588C190.199 23.7514 189.956 22.6979 189.471 21.7983C188.997 20.8868 188.275 20.1825 187.305 19.6854C186.334 19.1764 185.103 18.9219 183.612 18.9219H178.427V49H170.739ZM205.18 49H196.942L209.495 12.6364H219.403L231.938 49H223.699L214.591 20.946H214.307L205.18 49ZM204.665 34.7067H224.126V40.7081H204.665V34.7067ZM244.003 12.6364V49H236.315V12.6364H244.003ZM270.055 23.0945C269.913 21.6622 269.303 20.5495 268.226 19.7564C267.149 18.9633 265.687 18.5668 263.841 18.5668C262.586 18.5668 261.526 18.7443 260.662 19.0994C259.798 19.4427 259.135 19.9221 258.674 20.5376C258.224 21.1532 257.999 21.8516 257.999 22.6328C257.975 23.2839 258.111 23.852 258.407 24.3374C258.715 24.8227 259.135 25.2429 259.668 25.598C260.201 25.9413 260.816 26.2431 261.515 26.5036C262.213 26.7521 262.959 26.9652 263.752 27.1428L267.019 27.924C268.605 28.2791 270.061 28.7526 271.387 29.3445C272.712 29.9363 273.861 30.6643 274.831 31.5284C275.802 32.3925 276.554 33.4105 277.086 34.5824C277.631 35.7543 277.909 37.0978 277.921 38.6129C277.909 40.8383 277.341 42.7678 276.216 44.4013C275.104 46.023 273.494 47.2836 271.387 48.1832C269.292 49.071 266.764 49.5149 263.805 49.5149C260.869 49.5149 258.313 49.0651 256.135 48.1655C253.968 47.2659 252.276 45.9342 251.056 44.1705C249.849 42.3949 249.216 40.1991 249.157 37.5831H256.596C256.679 38.8023 257.028 39.8203 257.644 40.6371C258.271 41.442 259.106 42.0516 260.147 42.4659C261.201 42.8684 262.391 43.0696 263.716 43.0696C265.018 43.0696 266.149 42.8802 267.108 42.5014C268.078 42.1226 268.83 41.5959 269.363 40.9212C269.895 40.2464 270.162 39.4711 270.162 38.5952C270.162 37.7784 269.919 37.0919 269.434 36.5355C268.96 35.9792 268.262 35.5057 267.338 35.1151C266.427 34.7244 265.308 34.3693 263.983 34.0497L260.023 33.0554C256.957 32.3097 254.537 31.1437 252.761 29.5575C250.985 27.9714 250.104 25.8348 250.115 23.1477C250.104 20.946 250.69 19.0225 251.873 17.3771C253.069 15.7318 254.708 14.4474 256.792 13.5241C258.875 12.6009 261.242 12.1392 263.894 12.1392C266.593 12.1392 268.948 12.6009 270.961 13.5241C272.985 14.4474 274.559 15.7318 275.684 17.3771C276.808 19.0225 277.388 20.9283 277.424 23.0945H270.055ZM294.664 12.6364H304.146L314.16 37.0682H314.586L324.6 12.6364H334.082V49H326.625V25.3317H326.323L316.912 48.8224H311.834L302.424 25.2429H302.122V49H294.664V12.6364ZM340.416 49V12.6364H364.919V18.9751H348.105V27.6399H363.659V33.9787H348.105V42.6612H364.99V49H340.416ZM371.032 49V12.6364H385.378C388.124 12.6364 390.468 13.1276 392.409 14.1101C394.363 15.0807 395.848 16.4598 396.866 18.2472C397.896 20.0227 398.411 22.112 398.411 24.5149C398.411 26.9297 397.89 29.0071 396.848 30.7472C395.807 32.4754 394.297 33.8011 392.321 34.7244C390.356 35.6477 387.976 36.1094 385.183 36.1094H375.577V29.9304H383.94C385.408 29.9304 386.627 29.7292 387.598 29.3267C388.568 28.9242 389.29 28.3205 389.764 27.5156C390.249 26.7107 390.492 25.7105 390.492 24.5149C390.492 23.3075 390.249 22.2895 389.764 21.4609C389.29 20.6323 388.562 20.005 387.58 19.5788C386.609 19.1409 385.384 18.9219 383.904 18.9219H378.72V49H371.032ZM390.669 32.4517L399.707 49H391.22L382.377 32.4517H390.669ZM435.929 25.3672H428.152C428.01 24.361 427.72 23.4673 427.282 22.6861C426.844 21.893 426.281 21.2183 425.595 20.6619C424.908 20.1056 424.115 19.6794 423.216 19.3835C422.328 19.0876 421.363 18.9396 420.321 18.9396C418.439 18.9396 416.8 19.4072 415.403 20.3423C414.006 21.2656 412.923 22.6151 412.154 24.3906C411.384 26.1544 411 28.2969 411 30.8182C411 33.4105 411.384 35.5885 412.154 37.3523C412.935 39.116 414.024 40.4477 415.421 41.3473C416.818 42.2469 418.433 42.6967 420.268 42.6967C421.298 42.6967 422.251 42.5606 423.127 42.2884C424.015 42.0161 424.802 41.6196 425.488 41.0987C426.175 40.5661 426.743 39.9209 427.193 39.1634C427.654 38.4058 427.974 37.5417 428.152 36.571L435.929 36.6065C435.727 38.2756 435.224 39.8854 434.419 41.4361C433.626 42.9749 432.555 44.3539 431.206 45.5732C429.868 46.7805 428.27 47.7393 426.412 48.4496C424.565 49.148 422.476 49.4972 420.144 49.4972C416.9 49.4972 414 48.7633 411.444 47.2955C408.899 45.8277 406.886 43.7029 405.407 40.9212C403.939 38.1394 403.205 34.7718 403.205 30.8182C403.205 26.8527 403.951 23.4792 405.442 20.6974C406.934 17.9157 408.958 15.7969 411.515 14.3409C414.071 12.8731 416.948 12.1392 420.144 12.1392C422.251 12.1392 424.204 12.4351 426.003 13.027C427.814 13.6188 429.418 14.483 430.815 15.6193C432.212 16.7438 433.348 18.1229 434.224 19.7564C435.112 21.3899 435.68 23.2602 435.929 25.3672ZM447.026 49H438.787L451.341 12.6364H461.248L473.784 49H465.545L456.436 20.946H456.152L447.026 49ZM446.511 34.7067H465.971V40.7081H446.511V34.7067ZM491.051 49H478.161V12.6364H491.158C494.815 12.6364 497.964 13.3643 500.604 14.8203C503.243 16.2644 505.273 18.3419 506.694 21.0526C508.126 23.7633 508.842 27.0066 508.842 30.7827C508.842 34.5705 508.126 37.8258 506.694 40.5483C505.273 43.2708 503.232 45.3601 500.568 46.8161C497.917 48.272 494.744 49 491.051 49ZM485.849 42.4126H490.732C493.004 42.4126 494.916 42.0102 496.467 41.2053C498.029 40.3885 499.201 39.1278 499.982 37.4233C500.775 35.7069 501.172 33.4934 501.172 30.7827C501.172 28.0956 500.775 25.8999 499.982 24.1953C499.201 22.4908 498.035 21.236 496.484 20.4311C494.934 19.6262 493.022 19.2237 490.749 19.2237H485.849V42.4126ZM547.954 30.8182C547.954 34.7836 547.202 38.1572 545.699 40.9389C544.207 43.7206 542.171 45.8454 539.591 47.3132C537.022 48.7692 534.134 49.4972 530.926 49.4972C527.694 49.4972 524.794 48.7633 522.226 47.2955C519.657 45.8277 517.627 43.7029 516.135 40.9212C514.644 38.1394 513.898 34.7718 513.898 30.8182C513.898 26.8527 514.644 23.4792 516.135 20.6974C517.627 17.9157 519.657 15.7969 522.226 14.3409C524.794 12.8731 527.694 12.1392 530.926 12.1392C534.134 12.1392 537.022 12.8731 539.591 14.3409C542.171 15.7969 544.207 17.9157 545.699 20.6974C547.202 23.4792 547.954 26.8527 547.954 30.8182ZM540.159 30.8182C540.159 28.2495 539.774 26.0833 539.005 24.3196C538.247 22.5559 537.176 21.2183 535.791 20.3068C534.406 19.3954 532.784 18.9396 530.926 18.9396C529.068 18.9396 527.446 19.3954 526.061 20.3068C524.676 21.2183 523.599 22.5559 522.829 24.3196C522.072 26.0833 521.693 28.2495 521.693 30.8182C521.693 33.3868 522.072 35.553 522.829 37.3168C523.599 39.0805 524.676 40.4181 526.061 41.3295C527.446 42.241 529.068 42.6967 530.926 42.6967C532.784 42.6967 534.406 42.241 535.791 41.3295C537.176 40.4181 538.247 39.0805 539.005 37.3168C539.774 35.553 540.159 33.3868 540.159 30.8182ZM573.375 23.0945C573.233 21.6622 572.624 20.5495 571.547 19.7564C570.469 18.9633 569.007 18.5668 567.161 18.5668C565.906 18.5668 564.847 18.7443 563.983 19.0994C563.118 19.4427 562.456 19.9221 561.994 20.5376C561.544 21.1532 561.319 21.8516 561.319 22.6328C561.296 23.2839 561.432 23.852 561.728 24.3374C562.035 24.8227 562.456 25.2429 562.988 25.598C563.521 25.9413 564.136 26.2431 564.835 26.5036C565.533 26.7521 566.279 26.9652 567.072 27.1428L570.339 27.924C571.925 28.2791 573.381 28.7526 574.707 29.3445C576.033 29.9363 577.181 30.6643 578.152 31.5284C579.122 32.3925 579.874 33.4105 580.407 34.5824C580.951 35.7543 581.229 37.0978 581.241 38.6129C581.229 40.8383 580.661 42.7678 579.537 44.4013C578.424 46.023 576.814 47.2836 574.707 48.1832C572.612 49.071 570.085 49.5149 567.125 49.5149C564.19 49.5149 561.633 49.0651 559.455 48.1655C557.289 47.2659 555.596 45.9342 554.377 44.1705C553.169 42.3949 552.536 40.1991 552.477 37.5831H559.917C559.999 38.8023 560.349 39.8203 560.964 40.6371C561.592 41.442 562.426 42.0516 563.468 42.4659C564.521 42.8684 565.711 43.0696 567.037 43.0696C568.339 43.0696 569.469 42.8802 570.428 42.5014C571.399 42.1226 572.15 41.5959 572.683 40.9212C573.216 40.2464 573.482 39.4711 573.482 38.5952C573.482 37.7784 573.239 37.0919 572.754 36.5355C572.28 35.9792 571.582 35.5057 570.659 35.1151C569.747 34.7244 568.629 34.3693 567.303 34.0497L563.343 33.0554C560.278 32.3097 557.857 31.1437 556.081 29.5575C554.306 27.9714 553.424 25.8348 553.436 23.1477C553.424 20.946 554.01 19.0225 555.194 17.3771C556.389 15.7318 558.029 14.4474 560.112 13.5241C562.195 12.6009 564.563 12.1392 567.214 12.1392C569.913 12.1392 572.269 12.6009 574.281 13.5241C576.305 14.4474 577.879 15.7318 579.004 17.3771C580.128 19.0225 580.708 20.9283 580.744 23.0945H573.375Z" fill="#DC9644"/>
</svg>
