<svg width="52" height="69" viewBox="0 0 52 69" fill="none" xmlns="http://www.w3.org/2000/svg">
<path d="M33.3542 68.8333V49.9125L24.8042 42.075L21.4792 56.9583L0.5 52.6042L1.37083 48.1708L17.125 51.3375L22.9042 22.125L14.9875 25.8458V36.4542H10.2375V22.6L23.2208 17.1375C24.9097 16.3986 26.1104 15.9368 26.8229 15.7521C27.5354 15.5674 28.2611 15.475 29 15.475C30.0556 15.475 30.9924 15.6993 31.8104 16.1479C32.6285 16.5965 33.3278 17.2694 33.9083 18.1667L37.2333 23.4708C38.6056 25.6875 40.4792 27.6139 42.8542 29.25C45.2292 30.8861 48 31.7042 51.1667 31.7042V36.4542C47.6306 36.4542 44.4771 35.6361 41.7063 34C38.9354 32.3639 36.3625 29.9097 33.9875 26.6375L30.9 39.1458L38.1042 45.7958V68.8333H33.3542ZM33.75 12.3083C32.1667 12.3083 30.8076 11.741 29.6729 10.6063C28.5382 9.47153 27.9708 8.1125 27.9708 6.52917C27.9708 4.94583 28.5382 3.58681 29.6729 2.45208C30.8076 1.31736 32.1667 0.75 33.75 0.75C35.3333 0.75 36.6924 1.31736 37.8271 2.45208C38.9618 3.58681 39.5292 4.94583 39.5292 6.52917C39.5292 8.1125 38.9618 9.47153 37.8271 10.6063C36.6924 11.741 35.3333 12.3083 33.75 12.3083Z" fill="white"/>
</svg>
