<svg width="164" height="24" viewBox="0 0 164 24" fill="none" xmlns="http://www.w3.org/2000/svg">
<path d="M110 13.5H157" stroke="#FBAB4D"/>
<circle cx="156" cy="14" r="8" fill="#FBAB4D"/>
<path d="M1.76136 19V4.45455H10.5398V6.01705H3.52273V10.9318H10.0852V12.4943H3.52273V17.4375H10.6534V19H1.76136ZM15.1634 4.45455V19H13.4872V4.45455H15.1634ZM24.0856 4.45455H26.1879L31.131 16.5284H31.3015L36.2447 4.45455H38.3469V19H36.6992V7.94886H36.5572L32.0117 19H30.4208L25.8754 7.94886H25.7333V19H24.0856V4.45455ZM44.8615 19.2557C44.1702 19.2557 43.5429 19.1255 42.9794 18.8651C42.416 18.5999 41.9685 18.2188 41.6371 17.7216C41.3056 17.2197 41.1399 16.6136 41.1399 15.9034C41.1399 15.2784 41.263 14.7718 41.5092 14.3835C41.7554 13.9905 42.0845 13.6828 42.4964 13.4602C42.9084 13.2377 43.3629 13.072 43.8601 12.9631C44.362 12.8494 44.8662 12.7595 45.3729 12.6932C46.0357 12.608 46.5732 12.544 46.9851 12.5014C47.4018 12.4541 47.7048 12.3759 47.8942 12.267C48.0883 12.1581 48.1854 11.9687 48.1854 11.6989V11.642C48.1854 10.9413 47.9936 10.3968 47.6101 10.0085C47.2313 9.62027 46.656 9.42614 45.8842 9.42614C45.084 9.42614 44.4567 9.60133 44.0021 9.9517C43.5476 10.3021 43.228 10.6761 43.0433 11.0739L41.4524 10.5057C41.7365 9.8428 42.1153 9.3267 42.5888 8.95739C43.067 8.58333 43.5878 8.32292 44.1513 8.17614C44.7195 8.02462 45.2782 7.94886 45.8274 7.94886C46.1778 7.94886 46.5803 7.99148 47.0348 8.0767C47.4941 8.1572 47.9368 8.32528 48.3629 8.58097C48.7938 8.83665 49.1513 9.22254 49.4354 9.73864C49.7195 10.2547 49.8615 10.946 49.8615 11.8125V19H48.1854V17.5227H48.1001C47.9865 17.7595 47.7971 18.0128 47.532 18.2827C47.2668 18.5526 46.9141 18.7822 46.4737 18.9716C46.0334 19.161 45.496 19.2557 44.8615 19.2557ZM45.1172 17.75C45.7801 17.75 46.3388 17.6198 46.7933 17.3594C47.2526 17.099 47.5982 16.7628 47.8303 16.3509C48.067 15.9389 48.1854 15.5057 48.1854 15.0511V13.517C48.1143 13.6023 47.9581 13.6804 47.7166 13.7514C47.4799 13.8177 47.2053 13.8769 46.8928 13.929C46.585 13.9763 46.2843 14.0189 45.9908 14.0568C45.7019 14.09 45.4676 14.1184 45.2876 14.142C44.852 14.1989 44.4448 14.2912 44.0661 14.419C43.692 14.5421 43.389 14.7292 43.157 14.9801C42.9297 15.2263 42.8161 15.5625 42.8161 15.9886C42.8161 16.571 43.0315 17.0114 43.4624 17.3097C43.898 17.6032 44.4496 17.75 45.1172 17.75ZM57.0401 19.2273C56.131 19.2273 55.3285 18.9976 54.6325 18.5384C53.9364 18.0743 53.3919 17.4209 52.9989 16.5781C52.6059 15.7306 52.4094 14.7292 52.4094 13.5739C52.4094 12.428 52.6059 11.4337 52.9989 10.5909C53.3919 9.74811 53.9388 9.09706 54.6396 8.63778C55.3403 8.1785 56.15 7.94886 57.0685 7.94886C57.7788 7.94886 58.3398 8.06723 58.7518 8.30398C59.1684 8.53598 59.4857 8.80114 59.7035 9.09943C59.926 9.39299 60.0988 9.63447 60.2219 9.82386H60.364V4.45455H62.0401V19H60.4208V17.3239H60.2219C60.0988 17.5227 59.9237 17.7737 59.6964 18.0767C59.4691 18.375 59.1448 18.6425 58.7234 18.8793C58.302 19.1113 57.7409 19.2273 57.0401 19.2273ZM57.2674 17.7216C57.9397 17.7216 58.5079 17.5464 58.9719 17.196C59.436 16.8409 59.7887 16.3509 60.0302 15.7259C60.2717 15.0961 60.3924 14.3693 60.3924 13.5455C60.3924 12.7311 60.274 12.0185 60.0373 11.4077C59.8005 10.7921 59.4502 10.3139 58.9862 9.97301C58.5221 9.62737 57.9492 9.45455 57.2674 9.45455C56.5572 9.45455 55.9653 9.63684 55.4918 10.0014C55.0231 10.3613 54.6703 10.8513 54.4336 11.4716C54.2016 12.0871 54.0856 12.7784 54.0856 13.5455C54.0856 14.322 54.204 15.0275 54.4407 15.6619C54.6822 16.2917 55.0373 16.7936 55.506 17.1676C55.9795 17.5369 56.5666 17.7216 57.2674 17.7216ZM65.3427 19V8.09091H66.962V9.73864H67.0756C67.2745 9.19886 67.6344 8.76089 68.1552 8.42472C68.676 8.08854 69.2631 7.92045 69.9165 7.92045C70.0397 7.92045 70.1935 7.92282 70.3782 7.92756C70.5629 7.93229 70.7025 7.93939 70.7972 7.94886V9.65341C70.7404 9.6392 70.6102 9.6179 70.4066 9.58949C70.2077 9.55634 69.997 9.53977 69.7745 9.53977C69.2442 9.53977 68.7707 9.65104 68.354 9.87358C67.9421 10.0914 67.6154 10.3944 67.3739 10.7827C67.1372 11.1662 67.0188 11.6042 67.0188 12.0966V19H65.3427ZM72.7841 19V8.09091H74.4602V19H72.7841ZM73.6364 6.27273C73.3097 6.27273 73.0279 6.16146 72.7912 5.93892C72.5592 5.71638 72.4432 5.44886 72.4432 5.13636C72.4432 4.82386 72.5592 4.55634 72.7912 4.33381C73.0279 4.11127 73.3097 4 73.6364 4C73.9631 4 74.2424 4.11127 74.4744 4.33381C74.7112 4.55634 74.8295 4.82386 74.8295 5.13636C74.8295 5.44886 74.7112 5.71638 74.4744 5.93892C74.2424 6.16146 73.9631 6.27273 73.6364 6.27273ZM81.9336 23.3182C81.1239 23.3182 80.4279 23.214 79.8455 23.0057C79.2631 22.8021 78.7778 22.5322 78.3896 22.196C78.006 21.8646 77.7006 21.5095 77.4734 21.1307L78.8086 20.1932C78.9601 20.392 79.1519 20.6193 79.3839 20.875C79.6159 21.1354 79.9331 21.3603 80.3356 21.5497C80.7428 21.7438 81.2754 21.8409 81.9336 21.8409C82.8143 21.8409 83.5411 21.6278 84.114 21.2017C84.6869 20.7756 84.9734 20.108 84.9734 19.1989V16.983H84.8313C84.7082 17.1818 84.533 17.428 84.3058 17.7216C84.0832 18.0104 83.7612 18.2685 83.3398 18.4957C82.9232 18.7183 82.3597 18.8295 81.6495 18.8295C80.7688 18.8295 79.9781 18.6212 79.2773 18.2045C78.5813 17.7879 78.0297 17.1818 77.6225 16.3864C77.2201 15.5909 77.0188 14.625 77.0188 13.4886C77.0188 12.3712 77.2153 11.3982 77.6083 10.5696C78.0013 9.73627 78.5482 9.09233 79.2489 8.63778C79.9497 8.1785 80.7594 7.94886 81.6779 7.94886C82.3881 7.94886 82.9516 8.06723 83.3683 8.30398C83.7897 8.53598 84.1116 8.80114 84.3342 9.09943C84.5614 9.39299 84.7366 9.63447 84.8597 9.82386H85.0302V8.09091H86.6495V19.3125C86.6495 20.25 86.4364 21.0123 86.0103 21.5994C85.5889 22.1913 85.0207 22.6245 84.3058 22.8991C83.5955 23.1785 82.8048 23.3182 81.9336 23.3182ZM81.8768 17.3239C82.5491 17.3239 83.1173 17.17 83.5813 16.8622C84.0453 16.5545 84.3981 16.1117 84.6396 15.5341C84.881 14.9564 85.0018 14.2652 85.0018 13.4602C85.0018 12.6742 84.8834 11.9806 84.6467 11.3793C84.4099 10.7779 84.0595 10.3068 83.5955 9.96591C83.1315 9.625 82.5586 9.45455 81.8768 9.45455C81.1665 9.45455 80.5747 9.63447 80.1012 9.99432C79.6325 10.3542 79.2797 10.8371 79.043 11.4432C78.811 12.0492 78.695 12.7216 78.695 13.4602C78.695 14.2178 78.8133 14.8878 79.0501 15.4702C79.2915 16.0478 79.6467 16.5024 80.1154 16.8338C80.5889 17.1605 81.176 17.3239 81.8768 17.3239ZM92.9279 19.2557C92.2366 19.2557 91.6093 19.1255 91.0458 18.8651C90.4824 18.5999 90.0349 18.2188 89.7035 17.7216C89.372 17.2197 89.2063 16.6136 89.2063 15.9034C89.2063 15.2784 89.3294 14.7718 89.5756 14.3835C89.8219 13.9905 90.1509 13.6828 90.5629 13.4602C90.9748 13.2377 91.4293 13.072 91.9265 12.9631C92.4284 12.8494 92.9326 12.7595 93.4393 12.6932C94.1022 12.608 94.6396 12.544 95.0515 12.5014C95.4682 12.4541 95.7712 12.3759 95.9606 12.267C96.1547 12.1581 96.2518 11.9687 96.2518 11.6989V11.642C96.2518 10.9413 96.06 10.3968 95.6765 10.0085C95.2977 9.62027 94.7224 9.42614 93.9506 9.42614C93.1504 9.42614 92.5231 9.60133 92.0685 9.9517C91.614 10.3021 91.2944 10.6761 91.1097 11.0739L89.5188 10.5057C89.8029 9.8428 90.1817 9.3267 90.6552 8.95739C91.1334 8.58333 91.6542 8.32292 92.2177 8.17614C92.7859 8.02462 93.3446 7.94886 93.8938 7.94886C94.2442 7.94886 94.6467 7.99148 95.1012 8.0767C95.5605 8.1572 96.0032 8.32528 96.4293 8.58097C96.8602 8.83665 97.2177 9.22254 97.5018 9.73864C97.7859 10.2547 97.9279 10.946 97.9279 11.8125V19H96.2518V17.5227H96.1665C96.0529 17.7595 95.8635 18.0128 95.5984 18.2827C95.3332 18.5526 94.9805 18.7822 94.5401 18.9716C94.0998 19.161 93.5624 19.2557 92.9279 19.2557ZM93.1836 17.75C93.8465 17.75 94.4052 17.6198 94.8597 17.3594C95.319 17.099 95.6647 16.7628 95.8967 16.3509C96.1334 15.9389 96.2518 15.5057 96.2518 15.0511V13.517C96.1808 13.6023 96.0245 13.6804 95.783 13.7514C95.5463 13.8177 95.2717 13.8769 94.9592 13.929C94.6514 13.9763 94.3507 14.0189 94.0572 14.0568C93.7683 14.09 93.534 14.1184 93.354 14.142C92.9184 14.1989 92.5112 14.2912 92.1325 14.419C91.7584 14.5421 91.4554 14.7292 91.2234 14.9801C90.9961 15.2263 90.8825 15.5625 90.8825 15.9886C90.8825 16.571 91.0979 17.0114 91.5288 17.3097C91.9644 17.6032 92.516 17.75 93.1836 17.75ZM102.663 4.45455V19H100.987V4.45455H102.663Z" fill="#FBAB4D"/>
</svg>
