<svg width="27" height="27" viewBox="0 0 27 27" fill="none" xmlns="http://www.w3.org/2000/svg">
<circle cx="13.5" cy="13.5" r="13.5" fill="#FBAB4D"/>
<path d="M9.50568 21V19.7216L14.3068 14.4659C14.8703 13.8504 15.3343 13.3153 15.6989 12.8608C16.0634 12.4015 16.3333 11.9706 16.5085 11.5682C16.6884 11.161 16.7784 10.7348 16.7784 10.2898C16.7784 9.77841 16.6553 9.3357 16.4091 8.96165C16.1676 8.58759 15.8362 8.29877 15.4148 8.09517C14.9934 7.89157 14.5199 7.78977 13.9943 7.78977C13.4356 7.78977 12.9479 7.90578 12.5312 8.13778C12.1193 8.36506 11.7997 8.68466 11.5724 9.09659C11.3499 9.50852 11.2386 9.99148 11.2386 10.5455H9.5625C9.5625 9.69318 9.759 8.94508 10.152 8.30114C10.545 7.6572 11.08 7.1553 11.7571 6.79545C12.4389 6.43561 13.2036 6.25568 14.0511 6.25568C14.9034 6.25568 15.6586 6.43561 16.3168 6.79545C16.9749 7.1553 17.491 7.64062 17.8651 8.25142C18.2391 8.86222 18.4261 9.54167 18.4261 10.2898C18.4261 10.8248 18.3291 11.348 18.1349 11.8594C17.9455 12.366 17.6141 12.9318 17.1406 13.5568C16.6719 14.1771 16.0208 14.9347 15.1875 15.8295L11.9205 19.3239V19.4375H18.6818V21H9.50568Z" fill="white"/>
</svg>
