<svg width="27" height="27" viewBox="0 0 27 27" fill="none" xmlns="http://www.w3.org/2000/svg">
<circle cx="13.5" cy="13.5" r="13.5" fill="#FBAB4D"/>
<path d="M13.4205 21.1989C12.483 21.1989 11.6473 21.0379 10.9134 20.7159C10.1842 20.3939 9.60417 19.9465 9.1733 19.3736C8.74716 18.7959 8.51515 18.1259 8.47727 17.3636H10.267C10.3049 17.8324 10.4659 18.2372 10.75 18.5781C11.0341 18.9143 11.4058 19.1747 11.8651 19.3594C12.3243 19.544 12.8333 19.6364 13.392 19.6364C14.017 19.6364 14.571 19.5275 15.054 19.3097C15.5369 19.0919 15.9157 18.7888 16.1903 18.4006C16.465 18.0123 16.6023 17.5625 16.6023 17.0511C16.6023 16.5161 16.4697 16.045 16.2045 15.6378C15.9394 15.2259 15.5511 14.9039 15.0398 14.6719C14.5284 14.4399 13.9034 14.3239 13.1648 14.3239H12V12.7614H13.1648C13.7424 12.7614 14.2491 12.6572 14.6847 12.4489C15.125 12.2405 15.4683 11.947 15.7145 11.5682C15.9654 11.1894 16.0909 10.7443 16.0909 10.233C16.0909 9.74053 15.982 9.31203 15.7642 8.94744C15.5464 8.58286 15.2386 8.29877 14.8409 8.09517C14.4479 7.89157 13.9839 7.78977 13.4489 7.78977C12.947 7.78977 12.4735 7.8821 12.0284 8.06676C11.5881 8.24669 11.2282 8.50947 10.9489 8.85511C10.6695 9.19602 10.518 9.60795 10.4943 10.0909H8.78977C8.81818 9.3286 9.04782 8.66098 9.47869 8.08807C9.90956 7.51042 10.473 7.06061 11.169 6.73864C11.8698 6.41667 12.6392 6.25568 13.4773 6.25568C14.3769 6.25568 15.1487 6.43797 15.7926 6.80256C16.4366 7.1624 16.9313 7.63826 17.277 8.23011C17.6226 8.82197 17.7955 9.46117 17.7955 10.1477C17.7955 10.9669 17.58 11.6652 17.1491 12.2429C16.723 12.8205 16.143 13.2206 15.4091 13.4432V13.5568C16.3277 13.7083 17.045 14.099 17.5611 14.7287C18.0772 15.3537 18.3352 16.1278 18.3352 17.0511C18.3352 17.8419 18.1198 18.5521 17.6889 19.1818C17.2628 19.8068 16.6804 20.2992 15.9418 20.6591C15.2031 21.0189 14.3627 21.1989 13.4205 21.1989Z" fill="white"/>
</svg>
